<svg width="22" height="20" viewBox="0 0 22 20" fill="none" xmlns="http://www.w3.org/2000/svg">
<path d="M11.0189 19.4427C10.933 19.4427 10.847 19.4248 10.7611 19.389C10.6752 19.3532 10.6107 19.3138 10.5677 19.2709L1.75914 10.097C1.30081 9.63869 0.928411 9.13023 0.641953 8.57163C0.355495 8.01304 0.165716 7.43654 0.0726172 6.84214C-0.0204818 6.24774 -0.0240625 5.64976 0.061875 5.0482C0.162135 4.44663 0.362656 3.86656 0.663437 3.30796C1.0788 2.49156 1.66962 1.80048 2.4359 1.23472C3.20217 0.668965 4.04365 0.292988 4.96031 0.10679C5.87698 -0.0794076 6.79007 -0.0221159 7.69957 0.278665C8.60908 0.579447 9.40758 1.07359 10.0951 1.76109L11.0189 2.66343L11.9427 1.76109C12.6302 1.07359 13.4144 0.590189 14.2953 0.310892C15.1761 0.031595 16.1035 -0.0364388 17.0775 0.10679C17.9942 0.250019 18.8356 0.604512 19.6019 1.17027C20.3682 1.73602 20.959 2.44859 21.3744 3.30796C21.6465 3.88088 21.8327 4.47528 21.933 5.09116C22.0189 5.70705 22.0153 6.31219 21.9222 6.90659C21.8291 7.501 21.6465 8.07749 21.3744 8.63609C21.1022 9.18036 20.737 9.66734 20.2787 10.097L11.4701 19.2709C11.4271 19.3138 11.3627 19.3532 11.2767 19.389C11.1908 19.4248 11.1048 19.4427 11.0189 19.4427ZM5.88414 1.39585C5.74091 1.39585 5.61917 1.39943 5.51891 1.40659C5.41865 1.41376 5.2969 1.43882 5.15367 1.48179C4.46617 1.56773 3.82522 1.82554 3.23082 2.25523C2.63642 2.68492 2.17451 3.22202 1.84508 3.86656C1.38674 4.74025 1.23993 5.65692 1.40465 6.61656C1.56936 7.57619 1.99547 8.39976 2.68297 9.08726L11.0189 17.7025L19.2689 9.08726C19.9564 8.39976 20.3789 7.57619 20.5365 6.61656C20.694 5.65692 20.5436 4.74025 20.0853 3.86656C19.7702 3.22202 19.3155 2.68133 18.7211 2.24449C18.1267 1.80764 17.4857 1.52476 16.7982 1.39585C16.0677 1.25262 15.3552 1.30275 14.6605 1.54624C13.9658 1.78973 13.3607 2.16213 12.8451 2.66343L11.3841 4.14585C11.2409 4.27476 11.0726 4.33921 10.8793 4.33921C10.6859 4.33921 10.5176 4.27476 10.3744 4.14585L9.08531 2.66343C8.68427 2.26239 8.20087 1.95087 7.63512 1.72886C7.06936 1.50686 6.4857 1.39585 5.88414 1.39585Z" fill="#035667"/>
</svg>
