<svg width="23" height="20" viewBox="0 0 23 20" fill="none" xmlns="http://www.w3.org/2000/svg">
<path id="Vector" d="M11.2064 19.7737C11.119 19.7737 11.0316 19.7555 10.9442 19.7191C10.8568 19.6826 10.7913 19.6426 10.7476 19.5989L1.78908 10.2689C1.32295 9.80278 0.944213 9.28566 0.652879 8.71756C0.361545 8.14946 0.168537 7.56315 0.0738531 6.95864C-0.0208304 6.35412 -0.024472 5.74596 0.0629281 5.13416C0.164895 4.52236 0.368829 3.9324 0.674729 3.3643C1.09716 2.534 1.69804 1.83116 2.47736 1.25578C3.25668 0.680391 4.11247 0.298016 5.04474 0.10865C5.97701 -0.0807171 6.90563 -0.0224514 7.83062 0.283449C8.7556 0.58935 9.5677 1.0919 10.2669 1.7911L11.2064 2.7088L12.146 1.7911C12.8452 1.0919 13.6427 0.600275 14.5386 0.316225C15.4344 0.0321751 16.3776 -0.0370178 17.3682 0.10865C18.3004 0.254316 19.1562 0.614841 19.9355 1.19023C20.7149 1.76561 21.3157 2.4903 21.7382 3.3643C22.0149 3.94697 22.2043 4.55149 22.3063 5.17786C22.3937 5.80422 22.39 6.41967 22.2953 7.02419C22.2007 7.6287 22.0149 8.21501 21.7382 8.78311C21.4614 9.33665 21.09 9.83191 20.6238 10.2689L11.6653 19.5989C11.6216 19.6426 11.556 19.6826 11.4686 19.7191C11.3812 19.7555 11.2938 19.7737 11.2064 19.7737ZM5.98429 1.41965C5.83862 1.41965 5.71481 1.42329 5.61284 1.43058C5.51087 1.43786 5.38705 1.46335 5.24139 1.50705C4.54219 1.59445 3.89033 1.85665 3.28581 2.29365C2.68129 2.73065 2.21152 3.2769 1.87648 3.9324C1.41035 4.82097 1.26104 5.75324 1.42856 6.72921C1.59607 7.70518 2.02943 8.54276 2.72863 9.24196L11.2064 18.0038L19.5969 9.24196C20.2961 8.54276 20.7258 7.70518 20.886 6.72921C21.0462 5.75324 20.8933 4.82097 20.4272 3.9324C20.1067 3.2769 19.6442 2.72701 19.0397 2.28273C18.4352 1.83844 17.7833 1.55075 17.0841 1.41965C16.3412 1.27398 15.6165 1.32497 14.91 1.5726C14.2035 1.82024 13.5881 2.19897 13.0637 2.7088L11.5779 4.21646C11.4322 4.34756 11.2611 4.41311 11.0644 4.41311C10.8678 4.41311 10.6966 4.34756 10.5509 4.21646L9.23994 2.7088C8.83208 2.30094 8.34045 1.98411 7.76507 1.75833C7.18968 1.53254 6.59609 1.41965 5.98429 1.41965Z" fill="#B59E76"/>
</svg>
