<svg width="24" height="24" viewBox="0 0 24 24" fill="none" xmlns="http://www.w3.org/2000/svg">
<path d="M10.0117 12.8463C10.4795 13.468 11.0763 13.9824 11.7617 14.3546C12.4471 14.7269 13.205 14.9482 13.984 15.0037C14.763 15.0592 15.5448 14.9474 16.2766 14.6761C17.0083 14.4047 17.6728 13.9801 18.2249 13.431L21.4928 10.1825C22.4849 9.16132 23.0339 7.79367 23.0214 6.37406C23.009 4.95446 22.4362 3.59649 21.4264 2.59264C20.4166 1.58879 19.0506 1.01938 17.6226 1.00704C16.1945 0.994705 14.8187 1.54043 13.7915 2.52669L11.918 4.37837" stroke="#B59E76" stroke-width="1.65126" stroke-linecap="round" stroke-linejoin="round"/>
<path d="M14.0177 11.1841C13.5499 10.5624 12.9531 10.048 12.2678 9.67577C11.5824 9.30353 10.8245 9.08217 10.0455 9.02671C9.26651 8.97125 8.48463 9.08298 7.75289 9.35433C7.02116 9.62568 6.35668 10.0503 5.80454 10.5994L2.53669 13.8479C1.54458 14.8691 0.995609 16.2367 1.00802 17.6563C1.02043 19.076 1.59322 20.4339 2.60303 21.4378C3.61284 22.4416 4.97887 23.011 6.40691 23.0234C7.83494 23.0357 9.21072 22.49 10.2379 21.5037L12.1006 19.652" stroke="#B59E76" stroke-width="1.65126" stroke-linecap="round" stroke-linejoin="round"/>
</svg>
