<svg width="150" height="63" viewBox="0 0 150 63" fill="none" xmlns="http://www.w3.org/2000/svg">
<g clip-path="url(#clip0_1337_43)">
<path d="M118.076 0C109.696 0 102.177 3.31579 96.5381 8.76316C94.1885 10.9737 92.2305 13.5789 90.6641 16.4211C88.941 19.6579 87.6879 23.2105 87.1396 27H96.2249H96.8514C97.713 22.9737 99.671 19.3421 102.412 16.4211C106.328 12.2368 111.889 9.63158 118.076 9.63158C130.059 9.63158 139.771 19.4211 139.771 31.5789C139.771 43.6579 130.059 53.4474 118.076 53.4474C111.889 53.4474 106.407 50.8421 102.412 46.6579L102.334 46.5789C99.5927 43.6579 97.713 40.1053 96.8514 36.0789H87.218C87.7662 39.8684 88.941 43.4211 90.7424 46.6579C92.3088 49.5 94.2668 52.1053 96.6165 54.3158C102.256 59.6842 109.774 63 118.155 63C135.385 63 149.405 48.8684 149.405 31.5C149.405 14.1316 135.307 0 118.076 0Z" fill="#AAA9AA"/>
<path d="M31.9238 53.3684C19.9407 53.3684 10.1506 43.5789 10.1506 31.5C10.1506 19.4211 19.9407 9.55263 31.9238 9.55263C38.1112 9.55263 43.6719 12.1579 47.588 16.3421C49.1544 13.5 51.1124 10.8947 53.462 8.68421C47.823 3.31579 40.3042 0 31.9238 0C14.6933 0 0.673828 14.1316 0.673828 31.5C0.673828 48.8684 14.6933 63 31.9238 63C40.3042 63 47.823 59.6842 53.462 54.2368C51.1124 52.0263 49.1544 49.4211 47.588 46.5789C43.6719 50.7632 38.1112 53.3684 31.9238 53.3684Z" fill="#AAA9AA"/>
<path d="M53.9318 27H53.7752H44.1417H28.4775V30.0789C28.7125 33.2368 30.9838 35.7632 33.8817 36.0789H44.1417H53.2269H53.8535C54.715 40.1053 56.673 43.7368 59.4143 46.6579C61.1373 43.4211 62.3904 39.8684 62.9387 36.0789C63.0953 34.5789 63.252 33.0789 63.252 31.5789C63.252 30.0789 63.1737 28.5 62.9387 27.0789L53.9318 27Z" fill="#AAA9AA"/>
<path d="M59.2577 16.5L59.336 16.4211C63.2521 12.2368 68.8128 9.63158 75.0002 9.63158C81.1875 9.63158 86.67 12.2368 90.6643 16.4211C92.2308 13.5789 94.1888 10.9737 96.5384 8.76316C90.8993 3.31579 83.3805 0 75.0002 0C66.6199 0 59.1011 3.31579 53.462 8.68421C51.1123 10.8947 49.1543 13.5 47.5879 16.3421C45.8649 19.5789 44.6117 23.1316 44.0635 26.9211H53.6969C54.6368 22.9737 56.5165 19.3421 59.2577 16.5Z" fill="#EF4129"/>
<path d="M75 53.3684C68.8127 53.3684 63.3302 50.7632 59.3358 46.5789C56.5946 43.6579 54.6366 40.0263 53.7751 36H53.1485H44.1416C44.6898 39.7895 45.8647 43.3421 47.666 46.5789C49.2325 49.4211 51.1905 52.0263 53.5401 54.2368C59.1792 59.6053 66.698 63 75.0783 63C83.4586 63 91.0558 59.6842 96.6165 54.3158C94.2669 52.1053 92.3089 49.5 90.7425 46.6579C86.7481 50.7632 81.1873 53.3684 75 53.3684Z" fill="#EF4129"/>
<path d="M105.937 26.9998C105.388 23.2104 104.213 19.6577 102.412 16.4209C99.6709 19.342 97.7129 22.9735 96.8513 26.9998H96.2248H87.1395H71.9453V30.0788C72.1803 33.2367 74.4516 35.763 77.3494 36.0788H87.2179H96.8513H97.008H105.937C106.093 34.5788 106.25 33.0788 106.25 31.5788C106.25 29.9998 106.171 28.4209 105.937 26.9998Z" fill="#EF4129"/>
<path d="M110.558 26.9209H108.6V36.0788H115.335V34.342H110.558V26.9209Z" fill="#EF4129"/>
<path d="M118.625 26.9209H116.667V35.9998H118.625V26.9209Z" fill="#EF4129"/>
<path d="M126.927 33.0788L122.619 26.9209H120.661V36.0788H122.541V29.9998L126.77 36.0788H128.728V26.9209H126.927V33.0788Z" fill="#EF4129"/>
<path d="M132.723 34.342V32.1314H137.109V30.5525H132.723V28.6577H137.422V26.9209H130.765V36.0788H137.579V34.342H132.723Z" fill="#EF4129"/>
</g>
<defs>
<clipPath id="clip0_1337_43">
<rect width="150" height="63" fill="white"/>
</clipPath>
</defs>
</svg>
