<svg width="191" height="44" viewBox="0 0 191 44" fill="none" xmlns="http://www.w3.org/2000/svg">
<path d="M182.119 43.2137V33.0573C182.119 29.5518 182.755 27.3567 184.792 25.4892C187.371 23.0648 191 23.1303 191 23.1303V15.5949C183.296 15.5949 181.8 19.9851 181.8 19.9851L179.604 16.283H174.988V43.2465H182.119V43.2137ZM38.2 43.9345C45.076 43.9345 46.8587 39.5443 46.8587 39.5443L49.0552 43.2465H53.671V16.283H46.4767V29.65C46.4767 33.1556 45.4262 35.4162 43.7708 36.4974C42.975 37.0544 41.6698 37.2837 40.4283 37.2837C36.29 37.2837 35.2395 34.8593 35.2395 30.8623V16.283H28.0133V33.0573C28.077 40.5927 31.706 43.9345 38.2 43.9345ZM130.899 15.5949C130.93 15.5949 130.93 15.5949 130.899 15.5949C124.023 15.5949 122.24 19.9851 122.24 19.9851L120.075 16.283H115.46V43.2465H122.622V29.9121C122.622 26.4065 123.673 24.1459 125.328 23.0648C126.124 22.5078 127.429 22.2785 128.67 22.2785C132.809 22.2785 133.859 24.7029 133.859 28.6999V43.2465H141.053V26.4721C141.022 18.9367 137.393 15.5949 130.899 15.5949ZM91.107 15.5949C84.4857 15.5949 82.5757 19.6247 82.5438 19.6902L82.4165 20.0179L82.2255 19.723C80.4428 16.9382 77.8962 15.6277 73.6623 15.6277C67.041 15.6277 65.131 19.6575 65.0992 19.723L64.9718 20.0506L62.7753 16.3485H58.1595V20.0506V25.6203V43.2465H65.3538V29.9121C65.3538 24.7029 67.1047 22.2785 70.8292 22.2785C74.108 22.2785 75.6678 24.277 75.6678 28.6016V43.2465H82.8622V29.7156C82.8622 24.6374 84.5812 22.2457 88.242 22.2457C90.3748 22.2457 93.1762 22.901 93.1762 28.6672V43.2137H100.371V26.4393C100.275 18.9367 97.4418 15.5949 91.107 15.5949ZM7.449 35.5473V5.47134H0V43.2465H25.594V35.58L7.449 35.5473ZM102.312 5.47134L107.629 10.9427L112.945 5.47134L107.629 0L102.312 5.47134ZM103.904 16.2502H111.353V43.2137H103.904V16.2502ZM157.798 15.5949C153.564 15.5949 149.935 17.0365 147.325 19.7885C144.874 22.344 143.536 25.9151 143.536 29.7811C143.536 33.6471 144.874 37.2182 147.325 39.7736C149.903 42.5257 153.564 44 157.798 44C166.202 44 172.091 38.1683 172.091 29.7811C172.091 21.3939 166.202 15.5949 157.798 15.5949ZM157.766 37.6768C153.66 37.6768 150.731 34.3678 150.731 29.7811C150.731 25.2599 153.755 21.8853 157.766 21.8853C161.873 21.8853 164.897 25.2599 164.897 29.7811C164.897 34.3023 161.904 37.6768 157.766 37.6768Z" fill="#481335"/>
</svg>
