<svg width="358" height="125" viewBox="0 0 358 125" fill="none" xmlns="http://www.w3.org/2000/svg">
<path d="M21.463 37.8207H27.9466L47.9192 91.9999H39.7215L24.7048 48.2913L9.68816 91.9999H1.49048L21.463 37.8207ZM10.6942 72.8844H39.1998V80.1133H10.6942V72.8844ZM102.687 37.8207H109.804V91.9999H102.389V51.4214L102.762 53.8062L89.4218 84.4729H84.1306L70.7907 54.5514L71.1633 51.4214V91.9999H63.7482V37.8207H70.8652L86.7762 73.5924L102.687 37.8207ZM135.321 84.9573H150.003C153.853 84.9573 156.66 84.2245 158.424 82.7589C160.188 81.2933 161.07 79.2314 161.07 76.5734V76.4616C161.07 74.6233 160.747 73.0459 160.101 71.7293C159.48 70.4127 158.486 69.4066 157.12 68.711C155.753 67.9906 154.002 67.6304 151.866 67.6304H135.321V60.7742H151.866C154.673 60.7742 156.784 60.1159 158.2 58.7993C159.641 57.4827 160.362 55.5326 160.362 52.9491C160.362 50.2414 159.567 48.2168 157.977 46.8754C156.387 45.5339 154.002 44.8632 150.822 44.8632H135.321V37.8207H152.201C155.704 37.8207 158.635 38.4169 160.995 39.6093C163.355 40.8016 165.119 42.4909 166.286 44.6769C167.454 46.863 168.038 49.4713 168.038 52.502C168.038 54.3651 167.677 56.1164 166.957 57.7559C166.237 59.3706 165.131 60.7618 163.641 61.9293C162.175 63.072 160.349 63.8421 158.163 64.2396C160.349 64.5625 162.237 65.345 163.827 66.5871C165.417 67.8043 166.634 69.3321 167.479 71.1703C168.323 73.0086 168.746 74.9959 168.746 77.1323V77.2441C168.746 80.1754 168.1 82.7589 166.808 84.9946C165.516 87.2303 163.665 88.9568 161.256 90.1741C158.846 91.3913 156.039 91.9999 152.835 91.9999H135.321V84.9573ZM130.85 37.8207H138.414V91.9999H130.85V37.8207ZM187.742 37.8207H195.343V91.9999H187.742V37.8207ZM191.431 84.771H222.545V91.9999H191.431V84.771ZM191.431 61.4822H218.446V68.711H191.431V61.4822ZM191.431 37.8207H222.545V45.0495H191.431V37.8207ZM244.298 61.8548H262.78C264.221 61.8548 265.501 61.507 266.618 60.8114C267.736 60.1159 268.593 59.1346 269.19 57.8677C269.811 56.576 270.121 55.0979 270.121 53.4335C270.121 51.7692 269.811 50.3035 269.19 49.0366C268.593 47.7448 267.736 46.7512 266.618 46.0556C265.525 45.3601 264.246 45.0123 262.78 45.0123H244.298V37.7834H262.482C265.612 37.7834 268.357 38.4293 270.717 39.721C273.102 41.0128 274.94 42.8511 276.232 45.2358C277.549 47.5958 278.207 50.3283 278.207 53.4335C278.207 56.5387 277.549 59.2837 276.232 61.6685C274.916 64.0284 273.065 65.8543 270.68 67.146C268.32 68.4378 265.588 69.0837 262.482 69.0837H244.298V61.8548ZM240.982 37.7834H248.584V91.9999H240.982V37.7834ZM259.054 67.4069L266.618 65.6928L280.48 91.9999H271.463L259.054 67.4069ZM306.258 42.2549H313.859V91.9999H306.258V42.2549ZM290.943 37.8207H329.174V45.0495H290.943V37.8207ZM350.369 91.9999H342.767V37.8207H350.369V91.9999Z" fill="#B59E76"/>
<path d="M52.2168 70.8154L24.5 1.2002M6.5 47L24.7364 1.79402" stroke="#B59E76" stroke-width="6"/>
<path d="M87.6467 121V108.335H89.0407L96.3167 118.569L95.6877 118.637V108.335H97.3707V121H95.9767L88.7347 110.698L89.3127 110.63V121H87.6467ZM109.548 121V109.865H106.114V108.335H114.614V109.865H111.231V121H109.548ZM132.214 121L136.753 108.335H138.725L143.264 121H141.479L140.442 118.025H135.036L133.999 121H132.214ZM135.563 116.495H139.915L137.501 109.542H137.977L135.563 116.495ZM157.333 121.204C156.438 121.204 155.61 121.045 154.851 120.728C154.092 120.399 153.434 119.94 152.879 119.351C152.324 118.762 151.887 118.07 151.57 117.277C151.264 116.484 151.111 115.617 151.111 114.676C151.111 113.724 151.264 112.851 151.57 112.058C151.876 111.265 152.307 110.573 152.862 109.984C153.417 109.395 154.075 108.941 154.834 108.624C155.593 108.295 156.421 108.131 157.316 108.131C158.189 108.131 158.971 108.284 159.662 108.59C160.365 108.896 160.954 109.293 161.43 109.78C161.917 110.267 162.263 110.789 162.467 111.344L160.971 112.075C160.676 111.338 160.217 110.755 159.594 110.324C158.971 109.893 158.211 109.678 157.316 109.678C156.432 109.678 155.644 109.888 154.953 110.307C154.273 110.726 153.74 111.31 153.355 112.058C152.97 112.806 152.777 113.679 152.777 114.676C152.777 115.662 152.97 116.529 153.355 117.277C153.752 118.025 154.29 118.609 154.97 119.028C155.661 119.447 156.449 119.657 157.333 119.657C158.104 119.657 158.801 119.493 159.424 119.164C160.047 118.835 160.54 118.382 160.903 117.804C161.266 117.226 161.447 116.557 161.447 115.798V115.016L162.212 115.73H157.316V114.285H163.13V115.407C163.13 116.291 162.977 117.09 162.671 117.804C162.365 118.518 161.946 119.13 161.413 119.64C160.88 120.139 160.263 120.524 159.56 120.796C158.857 121.068 158.115 121.204 157.333 121.204ZM172.521 121V108.335H180.766V109.865H174.187V113.877H180.426V115.407H174.187V119.47H180.766V121H172.521ZM189.97 121V108.335H191.364L198.64 118.569L198.011 118.637V108.335H199.694V121H198.3L191.058 110.698L191.636 110.63V121H189.97ZM211.871 121V109.865H208.437V108.335H216.937V109.865H213.554V121H211.871ZM230.273 121.204C229.355 121.204 228.539 121.011 227.825 120.626C227.122 120.241 226.572 119.714 226.176 119.045C225.79 118.365 225.598 117.594 225.598 116.733V108.335H227.281V116.699C227.281 117.277 227.405 117.793 227.655 118.246C227.915 118.688 228.267 119.034 228.709 119.283C229.162 119.532 229.683 119.657 230.273 119.657C230.862 119.657 231.378 119.532 231.82 119.283C232.273 119.034 232.624 118.688 232.874 118.246C233.134 117.793 233.265 117.277 233.265 116.699V108.335H234.948V116.733C234.948 117.594 234.749 118.365 234.353 119.045C233.967 119.714 233.423 120.241 232.721 120.626C232.018 121.011 231.202 121.204 230.273 121.204ZM227.842 106.261V104.85H232.721V106.261H227.842ZM244.826 121V108.335H249.297C250.135 108.335 250.872 108.494 251.507 108.811C252.141 109.128 252.634 109.582 252.986 110.171C253.348 110.76 253.53 111.452 253.53 112.245C253.53 113.14 253.303 113.9 252.85 114.523C252.396 115.146 251.784 115.594 251.014 115.866L253.955 121H252.017L248.923 115.509L250.028 116.155H246.492V121H244.826ZM246.492 114.625H249.348C249.846 114.625 250.283 114.529 250.657 114.336C251.031 114.143 251.32 113.866 251.524 113.503C251.739 113.14 251.847 112.721 251.847 112.245C251.847 111.758 251.739 111.338 251.524 110.987C251.32 110.624 251.031 110.347 250.657 110.154C250.283 109.961 249.846 109.865 249.348 109.865H246.492V114.625ZM261.765 121L266.304 108.335H268.276L272.815 121H271.03L269.993 118.025H264.587L263.55 121H261.765ZM265.114 116.495H269.466L267.052 109.542H267.528L265.114 116.495Z" fill="#B59E76"/>
<path d="M22.1912 0H27.2808L28.125 2.2002H21.374L22.1912 0Z" fill="#B59E76"/>
</svg>
