<svg width="110" height="126" viewBox="0 0 110 126" fill="none" xmlns="http://www.w3.org/2000/svg">
<path fill-rule="evenodd" clip-rule="evenodd" d="M52.7073 80.4648C53.5418 80.1182 54.6375 79.4644 56.0062 78.491C57.8819 77.1561 59.8325 75.6172 61.5229 74.053L63.6638 72.0717C63.4921 72.8579 63.3768 73.6223 63.2997 74.3719C63.1707 75.6281 63.149 76.8438 63.149 78.0509C63.4037 77.2997 63.6404 76.4973 63.8647 75.6604C64.1848 74.4673 64.5473 71.9915 65.0644 70.673L65.6708 70.0398L70.474 64.9329C70.3813 67.4565 70.3525 69.428 70.3825 70.8864C70.4144 72.4245 70.5359 73.3929 70.694 73.8369C70.8209 72.7652 70.9307 71.5094 71.0273 70.1157C71.1535 68.2907 71.2575 66.2284 71.3485 64.0337L74.991 60.5798C74.9816 63.4087 74.9988 66.0017 75.0814 68.0048C75.1441 69.5266 75.2445 70.7084 75.3999 71.3957C75.544 70.9965 75.6331 69.0317 75.7009 67.3467C75.7873 65.1934 75.829 62.5754 75.857 59.8126L79.4738 56.8018C79.5306 58.9649 79.5953 61.0443 79.6938 62.7818C79.7545 63.8522 79.8286 64.7927 79.9216 65.5434C80.1026 64.1043 80.2211 62.6069 80.2798 61.0552C80.3417 59.4295 80.3386 57.7433 80.2756 56.002L81.6922 54.7614C81.9889 54.5012 82.1442 53.8197 81.8557 53.5503C81.4706 53.1904 80.7795 53.34 80.4508 53.6932L79.4138 54.8076C77.304 54.8914 75.1296 54.664 73.6845 54.6488C72.8322 54.6399 72.201 54.6488 71.898 54.6847C72.2263 54.7991 72.9264 54.9304 73.9552 55.0767C75.0814 55.2368 75.0354 55.4392 78.4598 55.6079L76.7639 57.1425C76.4186 57.4552 75.5927 58.3022 75.2091 58.4439C74.6254 58.6585 73.5277 58.5872 72.926 58.5732C70.9697 58.5276 66.5356 57.9867 64.5504 58.1857C66.6672 58.7118 68.6384 59.1604 70.3287 59.4517C71.6041 59.6712 72.7656 59.7659 73.7629 59.7495L70.9284 62.5466C70.4868 62.9823 70.4171 63.1888 69.8057 63.3371C69.3124 63.4566 68.7034 63.4668 68.1964 63.4804C66.0095 63.54 63.9812 63.2997 62.6548 63.3262C61.8168 63.343 61.244 63.3998 61.0945 63.494C61.7689 63.5879 64.2557 64.1513 65.6914 64.3199C66.8954 64.4612 68.0246 64.5201 69.062 64.4769L65.4585 68.6812C64.7416 68.6033 63.9799 68.5609 63.161 68.564C61.251 68.5706 59.3878 68.9281 57.4349 69.0839C58.0474 69.152 58.6802 69.2603 59.3294 69.2439C60.6553 69.21 63.4885 69.2832 64.6719 69.4206L61.151 73.0421C59.9174 74.3112 58.6845 75.4474 57.3446 76.6094C55.8072 77.9419 54.2586 79.2098 52.7073 80.4648ZM48.0645 86.3296C50.1213 85.5687 52.3046 84.9647 54.3906 84.4986C59.8921 83.27 64.8394 83.3409 70.2349 80.9889C72.669 79.9282 74.8119 78.5287 76.5786 76.6915C77.9173 75.3835 79.1354 73.9863 80.175 72.4595C82.1326 69.5854 83.5228 65.8837 84.0313 62.455C84.3494 60.3115 84.2645 57.4451 83.6396 55.3271C83.4874 54.8112 83.2763 54.2668 82.9935 53.6877L86.8116 51.0819C87.2551 50.7793 87.3182 49.8206 87.0484 49.388C86.7216 48.8646 85.9386 48.7537 85.4729 49.161L81.8406 52.3404C80.9827 52.0465 80.0909 51.8151 79.1681 51.6422C77.0341 51.2423 74.5416 51.0861 72.3945 51.3841C69.4425 51.7937 66.2373 53.1702 63.7654 54.7847C60.7452 56.7574 57.4634 59.5731 55.4318 62.591C54.018 64.6914 52.7155 67.3565 51.9137 69.78C51.4031 71.3233 51.0632 72.8676 50.7112 74.4486C50.3436 76.0989 49.9534 77.7449 49.6084 79.3998C49.1115 81.7805 48.7728 83.9982 48.0645 86.3296Z" fill="#384F38"/>
<path fill-rule="evenodd" clip-rule="evenodd" d="M39.916 82.3703H42.7973V69.3838H39.916V82.3703Z" fill="#384F38"/>
<path fill-rule="evenodd" clip-rule="evenodd" d="M39.916 63.8265H42.7973V50.8398H39.916V63.8265Z" fill="#384F38"/>
<path fill-rule="evenodd" clip-rule="evenodd" d="M39.916 45.889H42.7973V32.9023H39.916V45.889Z" fill="#384F38"/>
<path fill-rule="evenodd" clip-rule="evenodd" d="M48.9443 27.9548H54.9369V14.9951H48.9443V27.9548Z" fill="#384F38"/>
<path fill-rule="evenodd" clip-rule="evenodd" d="M48.9443 50.8408H54.9368V60.8156C54.1692 61.8203 53.4812 62.7486 52.9361 63.8273H48.9443V50.8408Z" fill="#384F38"/>
<path fill-rule="evenodd" clip-rule="evenodd" d="M66.9317 32.9022H69.8129V45.8888H66.9317V32.9022ZM30.8398 82.4288H27.8652V22.3017L54.8448 0L81.8403 22.2541C81.8403 31.7945 81.8403 41.3351 81.8403 50.8758C73.7747 48.2539 66.9936 50.2274 60.8828 55.1623V8.93313L54.8576 3.96643L30.8398 23.8195V82.4288Z" fill="#384F38"/>
<path fill-rule="evenodd" clip-rule="evenodd" d="M48.9443 32.9023H54.9368V45.8889C54.9313 45.8958 49.6857 45.8889 48.9443 45.8889V32.9023Z" fill="#384F38"/>
<path d="M76.6938 105.486C76.6938 104.446 76.4515 103.628 75.9656 103.037C75.4788 102.446 74.7965 102.15 73.9185 102.15C73.0268 102.15 72.3371 102.444 71.8511 103.03C71.3648 103.617 71.1203 104.437 71.1203 105.486C71.1203 106.547 71.3694 107.381 71.8671 107.991C72.3652 108.6 73.045 108.906 73.9049 108.906C74.7965 108.906 75.4839 108.609 75.9675 108.016C76.4515 107.423 76.6938 106.579 76.6938 105.486ZM78.7268 105.486C78.7268 106.49 78.5305 107.374 78.1388 108.135C77.747 108.897 77.1867 109.481 76.4566 109.885C75.728 110.289 74.8776 110.49 73.9049 110.49C72.4088 110.49 71.2386 110.043 70.3897 109.152C69.5401 108.259 69.1152 107.037 69.1152 105.486C69.1152 103.939 69.5393 102.734 70.3851 101.867C71.2308 101 72.4088 100.565 73.9185 100.565C75.4258 100.565 76.6046 101.002 77.4542 101.879C78.3031 102.754 78.7268 103.958 78.7268 105.486Z" fill="#384F38"/>
<path d="M65.3041 110.35L62.1527 106.198H61.3366V110.35H59.3428V100.706H61.3366V104.558H62.1703L65.3143 100.706H67.6375L63.8451 105.32L67.6526 110.35H65.3041Z" fill="#384F38"/>
<path d="M55.0686 103.412C55.0686 102.855 54.541 102.276 53.5636 102.276H52.112V104.773H53.6189C54.4713 104.773 55.0686 104.418 55.0686 103.412ZM55.3373 110.35L52.8608 106.198H52.112V110.35H50.1182V100.706H53.7735C56.2894 100.706 56.9132 102.203 56.9132 103.361C56.9132 104.842 56.3158 105.766 54.8058 106.086L57.4895 110.247L55.3373 110.35Z" fill="#384F38"/>
<path d="M43.883 102.192L43.8417 102.341C43.7958 102.507 43.7436 102.695 43.6802 102.904C43.6171 103.115 43.1191 104.715 42.4088 106.815L45.4021 106.862L44.3141 103.596L44.0237 102.664L43.883 102.192ZM46.5407 110.35L45.8799 108.419H41.8904L41.23 110.35H39.2363L42.7075 100.706H45.0563L48.5137 110.35H46.5407Z" fill="#384F38"/>
<path d="M36.6581 103.795C36.6581 102.783 36.0682 102.276 34.888 102.276H32.8299V105.402H34.9432C35.492 105.402 35.9161 105.264 36.2112 104.989C36.5084 104.713 36.6581 104.313 36.6581 103.795ZM38.6635 103.759C38.6635 104.381 38.523 104.935 38.2439 105.423C37.9652 105.914 37.5663 106.29 37.0454 106.559C36.527 106.825 35.9092 106.958 35.1923 106.958H32.8299V110.35H30.8359V100.706H35.1118C36.2503 100.706 37.1261 100.972 37.7416 101.503C38.3571 102.035 38.6635 102.788 38.6635 103.759Z" fill="#384F38"/>
<path d="M107.926 125.554H110V115.909H107.926V125.554Z" fill="#384F38"/>
<path d="M85.3011 125.554L80.9363 118.37L80.8829 125.554H79.0391V115.909H81.4109L85.6714 122.78L85.6624 115.909H87.5062V125.554H85.3011Z" fill="#384F38"/>
<path d="M70.8496 125.554V115.909H76.4975V117.465H72.9263V119.89H76.4975V121.446H72.9263V123.998H76.7857V125.554H70.8496Z" fill="#384F38"/>
<path d="M66.954 125.554L66.1978 118.063L63.6749 125.554H62.307L59.8043 118.063L59.1006 125.554H57.2568L57.8989 115.909H60.883L62.9424 121.974L65.2065 115.909H67.972L68.7975 125.554H66.954Z" fill="#384F38"/>
<path d="M43.1897 117.465V125.554H41.1154V117.465H37.9131V115.909H46.3995V117.465H43.1897Z" fill="#384F38"/>
<path d="M4.6467 117.395L4.6052 117.545C4.55928 117.71 4.50707 117.898 4.44393 118.108C4.38068 118.318 3.88254 119.918 3.17245 122.018L6.16565 122.065L5.07763 118.799L4.78733 117.867L4.6467 117.395ZM7.30424 125.554L6.64361 123.622H2.65422L1.99381 125.554H0L3.47126 115.909H5.81994L9.27718 125.554H7.30424Z" fill="#384F38"/>
<path d="M17.124 118.999C17.124 117.987 16.534 117.48 15.3538 117.48H13.2957V120.606H15.4091C15.9578 120.606 16.3819 120.468 16.6771 120.193C16.9742 119.917 17.124 119.517 17.124 118.999ZM19.1293 118.964C19.1293 119.585 18.9888 120.139 18.7099 120.627C18.431 121.118 18.0322 121.494 17.5112 121.763C16.9928 122.029 16.375 122.162 15.6582 122.162H13.2957V125.555H11.3018V115.91H15.5776C16.7162 115.91 17.5919 116.177 18.2074 116.707C18.8228 117.239 19.1293 117.992 19.1293 118.964Z" fill="#384F38"/>
<path d="M23.8968 117.395L23.8553 117.545C23.8094 117.71 23.7572 117.898 23.694 118.108C23.6308 118.318 23.1326 119.918 22.4228 122.018L25.4158 122.065L24.3279 118.799L24.0373 117.867L23.8968 117.395ZM26.5543 125.554L25.8937 123.622H21.9043L21.2439 125.554H19.25L22.7213 115.909H25.0701L28.5273 125.554H26.5543Z" fill="#384F38"/>
<path d="M35.1114 118.616C35.1114 118.059 34.5838 117.48 33.6067 117.48H32.1549V119.977H33.662C34.5141 119.977 35.1114 119.622 35.1114 118.616ZM35.3804 125.555L32.9038 121.402H32.1549V125.555H30.1611V115.91H33.8164C36.3326 115.91 36.9561 117.407 36.9561 118.565C36.9561 120.047 36.3591 120.97 34.8485 121.291L37.5323 125.451L35.3804 125.555Z" fill="#384F38"/>
<path d="M51.049 117.395L51.0074 117.545C50.9614 117.71 50.9096 117.898 50.8462 118.108C50.7831 118.318 50.2851 119.918 49.5748 122.018L52.5681 122.065L51.4801 118.799L51.1897 117.867L51.049 117.395ZM53.7067 125.554L53.046 123.622H49.0566L48.396 125.554H46.4023L49.8735 115.909H52.2223L55.6799 125.554H53.7067Z" fill="#384F38"/>
<path d="M94.3779 117.465V125.554H92.3039V117.465H89.1016V115.909H97.5878V117.465H94.3779Z" fill="#384F38"/>
<path d="M101.962 117.395L101.92 117.545C101.874 117.71 101.822 117.898 101.759 118.108C101.696 118.318 101.198 119.918 100.488 122.018L103.481 122.065L102.393 118.799L102.103 117.867L101.962 117.395ZM104.62 125.554L103.959 123.622H99.9695L99.3091 125.554H97.3154L100.786 115.909H103.135L106.592 125.554H104.62Z" fill="#384F38"/>
</svg>
