<svg width="21" height="21" viewBox="0 0 21 21" fill="none" xmlns="http://www.w3.org/2000/svg">
<path id="Vector" d="M18.7794 0.339844H7.74706C6.51904 0.339844 5.52535 1.23884 5.52535 2.34984V7.98684L0.328073 12.6288C0.172348 12.7682 0.0658894 12.9462 0.0222071 13.1404C-0.0214751 13.3346 -0.000411513 13.5361 0.0827248 13.7194C0.165861 13.9027 0.307322 14.0596 0.489155 14.17C0.670988 14.2805 0.884994 14.3396 1.10402 14.3398V19.3398C1.10402 19.6051 1.22047 19.8594 1.42776 20.047C1.63505 20.2345 1.9162 20.3398 2.20935 20.3398H19.8947C20.1878 20.3398 20.469 20.2345 20.6763 20.047C20.8835 19.8594 21 19.6051 21 19.3398V2.34884C21 1.23884 20.0074 0.339844 18.7794 0.339844ZM9.86046 13.4508V18.3398H3.31468V12.7718L6.61631 9.82284L9.86046 12.8258V13.4508ZM12.1573 7.33984H9.94667V5.33984H12.1573V7.33984ZM16.5787 15.3398H14.368V13.3398H16.5787V15.3398ZM16.5787 11.3398H14.368V9.33984H16.5787V11.3398ZM16.5787 7.33984H14.368V5.33984H16.5787V7.33984Z" fill="#B59E76"/>
</svg>
