<svg width="25" height="19" viewBox="0 0 25 19" fill="none" xmlns="http://www.w3.org/2000/svg">
<path d="M20.8808 11.6559C20.8808 11.4942 20.8269 11.3594 20.719 11.2516L13.1174 5.02472C12.9017 4.83602 12.6861 4.83602 12.4704 5.02472L4.86877 11.2516C4.76094 11.3594 4.70703 11.4942 4.70703 11.6559V17.4381C4.70703 17.7076 4.80138 17.9367 4.99007 18.1254C5.17877 18.3141 5.40789 18.4085 5.67746 18.4085H10.3678C10.6913 18.4085 10.8531 18.2467 10.8531 17.9233V13.3946C10.8531 13.0711 11.0148 12.9094 11.3383 12.9094H14.2495C14.573 12.9094 14.7347 13.0711 14.7347 13.3946V17.9233C14.7347 18.2467 14.8965 18.4085 15.22 18.4085H19.9103C20.1799 18.4085 20.409 18.3141 20.5977 18.1254C20.7864 17.9367 20.8808 17.7076 20.8808 17.4381V11.6559ZM24.2772 9.18945C24.5199 9.37814 24.5333 9.60727 24.3177 9.87683L23.3068 11.1303C23.0912 11.3729 22.862 11.3864 22.6194 11.1707L13.1174 3.36691C12.9017 3.17821 12.6861 3.17821 12.4704 3.36691L2.96836 11.1707C2.72575 11.3864 2.49662 11.3729 2.28097 11.1303L1.27011 9.87683C1.05446 9.60727 1.06794 9.37814 1.31055 9.18945L11.5404 0.738676C11.9178 0.442158 12.3356 0.293899 12.7939 0.293899C13.2522 0.293899 13.6565 0.442158 14.0069 0.738676L17.646 3.73082V0.779111C17.646 0.644329 17.6865 0.523026 17.7673 0.415202C17.8751 0.334333 17.9964 0.293899 18.1312 0.293899H20.3956C20.5303 0.293899 20.6382 0.334333 20.719 0.415202C20.8269 0.523026 20.8808 0.644329 20.8808 0.779111V6.39948L24.2772 9.18945Z" fill="#B59E76"/>
</svg>
