<svg width="24" height="24" viewBox="0 0 24 24" fill="none" xmlns="http://www.w3.org/2000/svg">
<g id="Img">
<path id="Vector" d="M18.7213 15.0299L16.3527 14.7595C16.0742 14.7268 15.7919 14.7576 15.527 14.8497C15.2622 14.9418 15.0216 15.0926 14.8234 15.291L13.1076 17.0068C10.4604 15.6605 8.30875 13.5089 6.96243 10.8617L8.68755 9.13654C9.08853 8.73556 9.28435 8.17606 9.21908 7.60724L8.94865 5.25734C8.89579 4.80244 8.67748 4.38287 8.33529 4.07852C7.9931 3.77416 7.55094 3.60627 7.09298 3.60681H5.47975C4.42603 3.60681 3.54948 4.48336 3.61475 5.53709C4.10898 13.5006 10.478 19.8603 18.4322 20.3545C19.4859 20.4198 20.3625 19.5432 20.3625 18.4895V16.8763C20.3718 15.9345 19.6631 15.1418 18.7213 15.0299Z" fill="#EEEAE4"/>
</g>
</svg>
