<svg width="24" height="24" viewBox="0 0 24 24" fill="none" xmlns="http://www.w3.org/2000/svg">
<g id="Img">
<path id="Vector" d="M11.9787 2.66504C8.3699 2.66504 5.45117 5.58376 5.45117 9.19254C5.45117 14.0882 11.9787 21.315 11.9787 21.315C11.9787 21.315 18.5062 14.0882 18.5062 9.19254C18.5062 5.58376 15.5874 2.66504 11.9787 2.66504ZM11.9787 11.5238C11.3604 11.5238 10.7674 11.2782 10.3302 10.841C9.89303 10.4038 9.64742 9.81082 9.64742 9.19254C9.64742 8.57425 9.89303 7.98129 10.3302 7.5441C10.7674 7.1069 11.3604 6.86129 11.9787 6.86129C12.597 6.86129 13.1899 7.1069 13.6271 7.5441C14.0643 7.98129 14.3099 8.57425 14.3099 9.19254C14.3099 9.81082 14.0643 10.4038 13.6271 10.841C13.1899 11.2782 12.597 11.5238 11.9787 11.5238Z" fill="#EEEAE4"/>
</g>
</svg>
