<svg width="21" height="20" viewBox="0 0 21 20" fill="none" xmlns="http://www.w3.org/2000/svg">
<path d="M16.8333 15.4259H18.0208C18.5453 15.4244 19.0478 15.224 19.4186 14.8683C19.7894 14.5127 19.9984 14.0307 20 13.5278V5.93518C19.9984 5.43222 19.7894 4.95029 19.4186 4.59465C19.0478 4.239 18.5453 4.03854 18.0208 4.03703H2.97917C2.45474 4.03854 1.95224 4.239 1.58141 4.59465C1.21059 4.95029 1.00157 5.43222 1 5.93518V13.5278C1.00157 14.0307 1.21059 14.5127 1.58141 14.8683C1.95224 15.224 2.45474 15.4244 2.97917 15.4259H4.16667" stroke="#035667" stroke-width="1.5" stroke-linejoin="round"/>
<path d="M15.6313 9.35182H5.3713C4.70672 9.35182 4.16797 9.86852 4.16797 10.5059V18.0681C4.16797 18.7055 4.70672 19.2222 5.3713 19.2222H15.6313C16.2959 19.2222 16.8346 18.7055 16.8346 18.0681V10.5059C16.8346 9.86852 16.2959 9.35182 15.6313 9.35182Z" stroke="#035667" stroke-width="1.5" stroke-linejoin="round"/>
<path d="M16.8346 4.03704V2.89815C16.8331 2.39519 16.624 1.91326 16.2532 1.55761C15.8824 1.20197 15.3799 1.0015 14.8555 1H6.14714C5.62271 1.0015 5.12021 1.20197 4.74938 1.55761C4.37856 1.91326 4.16953 2.39519 4.16797 2.89815V4.03704" stroke="#035667" stroke-width="1.5" stroke-linejoin="round"/>
<path d="M17.668 6.69443C17.668 6.87997 17.5019 7.08332 17.2305 7.08332C16.959 7.08332 16.793 6.87997 16.793 6.69443C16.793 6.50889 16.959 6.30554 17.2305 6.30554C17.5019 6.30554 17.668 6.50889 17.668 6.69443Z" fill="#035667" stroke="#035667" stroke-width="1.5"/>
</svg>
