<svg width="24" height="17" viewBox="0 0 24 17" fill="none" xmlns="http://www.w3.org/2000/svg">
<path d="M22.6003 9.77327H3.95929V1.59739C3.95929 1.32486 3.86391 1.09321 3.67314 0.902439C3.48237 0.711668 3.25072 0.616283 2.97819 0.616283H1.01598C0.743446 0.616283 0.511796 0.711668 0.321025 0.902439C0.130255 1.09321 0.0348692 1.32486 0.0348692 1.59739V16.314H3.95929V13.6977H19.657V16.314H23.5814V10.7544C23.5814 10.4818 23.486 10.2502 23.2953 10.0594C23.1045 9.86866 22.8728 9.77327 22.6003 9.77327ZM7.88372 1.92442C8.78306 1.92442 9.54615 2.23783 10.173 2.86465C10.827 3.51872 11.1541 4.29543 11.1541 5.19478C11.1541 6.09412 10.827 6.85721 10.173 7.48402C9.54615 8.1381 8.78306 8.46513 7.88372 8.46513C6.98437 8.46513 6.20766 8.1381 5.55359 7.48402C4.92677 6.85721 4.61336 6.09412 4.61336 5.19478C4.61336 4.29543 4.92677 3.51872 5.55359 2.86465C6.20766 2.23783 6.98437 1.92442 7.88372 1.92442ZM23.5814 7.15699V8.46513H11.8081V4.21367C11.8081 3.94114 11.9035 3.70949 12.0943 3.51872C12.2851 3.32795 12.5167 3.23257 12.7892 3.23257H19.657C20.7471 3.23257 21.6737 3.61411 22.4368 4.37719C23.1999 5.14027 23.5814 6.06687 23.5814 7.15699Z" fill="#B59E76"/>
</svg>
