<svg width="24" height="19" viewBox="0 0 24 19" fill="none" xmlns="http://www.w3.org/2000/svg">
<path id="Vector" d="M0 0.5H23.078L23.078 18.5H7.62939e-06L0 0.5ZM10.915 7.81567C10.5303 7.81567 10.1638 7.89473 9.81518 8.05285C9.46657 8.21097 9.22021 8.43599 9.07596 8.72791C8.93171 8.43599 8.70938 8.21097 8.40886 8.05285C8.10834 7.89473 7.76583 7.81567 7.38116 7.81567C6.99649 7.81567 6.65999 7.88865 6.37149 8.0346C6.08299 8.18056 5.85465 8.36301 5.68636 8.58195V7.81567H4.78488V12.7782H5.68636V10.297C5.68636 9.76177 5.83058 9.34214 6.11908 9.03806C6.40758 8.73398 6.78013 8.58195 7.23692 8.58195C7.62159 8.58195 7.92204 8.6975 8.13841 8.9286C8.35478 9.1597 8.46295 9.51851 8.46295 10.005V12.7782H9.22019V10.297C9.22019 9.76177 9.36441 9.34214 9.65291 9.03806C9.94141 8.73398 10.314 8.58195 10.7708 8.58195C11.1554 8.58195 11.4559 8.6975 11.6722 8.9286C11.8886 9.1597 11.9968 9.51851 11.9968 10.005V12.7782H12.9343V10.005C12.9343 9.22659 12.736 8.66709 12.3393 8.32652C11.9427 7.98595 11.4679 7.81567 10.915 7.81567ZM15.0618 9.20226L16.3239 8.10758C16.6124 7.88865 16.8107 7.68795 16.9189 7.5055C17.0271 7.32306 17.0812 7.11021 17.0812 6.86695C17.0812 6.55071 16.961 6.28921 16.7206 6.08243C16.4802 5.87566 16.0836 5.77227 15.5306 5.77227C15.1459 5.77227 14.8335 5.82092 14.5931 5.91823C14.3526 6.01553 14.1604 6.17365 14.0161 6.39259L14.4488 6.72099C14.545 6.57503 14.6952 6.45948 14.8996 6.37434C15.1039 6.2892 15.3142 6.24663 15.5306 6.24663C15.8431 6.24663 16.0775 6.31352 16.2338 6.44732C16.39 6.58111 16.4682 6.72099 16.4682 6.86695C16.4682 6.93993 16.4201 7.04938 16.3239 7.19534C16.2277 7.3413 16.0715 7.49942 15.8551 7.66971L14.1603 9.20226V9.67663H17.2254V9.20226H15.0618Z" fill="#B59E76"/>
</svg>
