<svg width="18" height="18" viewBox="0 0 18 18" fill="none" xmlns="http://www.w3.org/2000/svg">
<path d="M17.7366 16.9453L13.3421 12.6211C13.9515 11.9414 14.4144 11.1738 14.7308 10.3184C15.0472 9.46289 15.1937 8.56641 15.1702 7.62891C15.1702 6.24609 14.8245 4.97461 14.1331 3.81445C13.4417 2.6543 12.5101 1.74023 11.3382 1.07227C10.1663 0.404297 8.89483 0.0761719 7.52374 0.0878906C6.15265 0.0996094 4.88702 0.451172 3.72687 1.14258C2.56671 1.83398 1.65265 2.76562 0.984678 3.9375C0.316709 5.10938 -0.0114157 6.38086 0.000303071 7.75195C0.0120218 9.12305 0.363584 10.3887 1.05499 11.5488C1.7464 12.709 2.67218 13.6289 3.83233 14.3086C4.99249 14.9883 6.26398 15.3164 7.64679 15.293C8.58429 15.293 9.48077 15.123 10.3362 14.7832C11.1917 14.4434 11.9593 13.9805 12.639 13.3945L16.9984 17.6836C17.0921 17.8008 17.2151 17.8594 17.3675 17.8594C17.5198 17.8594 17.6429 17.8066 17.7366 17.7012C17.8304 17.5957 17.8773 17.4668 17.8773 17.3145C17.8773 17.1621 17.8304 17.0391 17.7366 16.9453ZM1.03741 7.76953C1.03741 6.57422 1.32452 5.47266 1.89874 4.46484C2.47296 3.45703 3.25812 2.6543 4.25421 2.05664C5.2503 1.45898 6.34015 1.1543 7.52374 1.14258C8.70733 1.13086 9.80304 1.41797 10.8108 2.00391C11.8187 2.58984 12.6214 3.38086 13.2191 4.37695C13.8167 5.37305 14.1155 6.46289 14.1155 7.64648C14.1155 8.83008 13.8284 9.92578 13.2542 10.9336C12.68 11.9414 11.8948 12.7383 10.8987 13.3242C9.90265 13.9102 8.81866 14.209 7.64679 14.2207C6.47491 14.2324 5.37921 13.9512 4.35968 13.377C3.34015 12.8027 2.53155 12.0176 1.9339 11.0215C1.33624 10.0254 1.03741 8.94141 1.03741 7.76953Z" fill="#EEEAE4"/>
</svg>
