<svg width="24" height="24" viewBox="0 0 24 24" fill="none" xmlns="http://www.w3.org/2000/svg">
<path d="M12 11.5C12.852 11.5 13.6848 11.2507 14.3932 10.7837C15.1016 10.3168 15.6538 9.65299 15.9798 8.87641C16.3058 8.09982 16.3911 7.24529 16.2249 6.42087C16.0587 5.59645 15.6484 4.83917 15.046 4.2448C14.4436 3.65042 13.676 3.24565 12.8404 3.08166C12.0048 2.91768 11.1386 3.00184 10.3515 3.32351C9.56439 3.64519 8.89162 4.18992 8.41828 4.88883C7.94495 5.58774 7.69231 6.40943 7.69231 7.25C7.69231 8.37717 8.14615 9.45818 8.954 10.2552C9.76185 11.0522 10.8575 11.5 12 11.5ZM12 12.7143C9.33 12.7143 4 14.3414 4 17.5714V20H20V17.5714C20 14.3414 14.67 12.7143 12 12.7143Z" fill="#EEEAE4"/>
</svg>
