<svg width="12" height="26" viewBox="0 0 12 26" fill="none" xmlns="http://www.w3.org/2000/svg">
<path d="M2.50028 5.57041C2.50028 6.184 2.50028 8.92456 2.50028 8.92456H0.0429688V13.0263H2.50028V25.2138H7.5481V13.0263H10.9354C10.9354 13.0263 11.2528 11.0591 11.4063 8.90912C10.9654 8.90912 7.56734 8.90912 7.56734 8.90912C7.56734 8.90912 7.56734 6.52262 7.56734 6.10441C7.56734 5.68562 8.11746 5.12191 8.66159 5.12191C9.20479 5.12191 10.3509 5.12191 11.4119 5.12191C11.4119 4.56293 11.4119 2.6337 11.4119 0.851929C9.9952 0.851929 8.38341 0.851929 7.6725 0.851929C2.37529 0.851676 2.50028 4.95716 2.50028 5.57041Z" fill="#B59E76"/>
</svg>
