<svg width="98" height="97" viewBox="0 0 98 97" fill="none" xmlns="http://www.w3.org/2000/svg">
<g clip-path="url(#clip0_901_4)">
<path d="M10.4611 47.8858L10.4827 47.9073L10.5038 47.9293L49.0828 88.1079L87.6618 47.9293L87.7164 47.8724L87.7739 47.8185C89.5363 46.1662 90.9239 44.3125 91.9567 42.251C93.0239 40.0571 93.7324 37.8109 94.0935 35.505C94.4544 33.201 94.4721 30.8459 94.1381 28.4297C93.7424 26.0186 93.0123 23.6883 91.9416 21.4319C90.3257 18.0921 88.0425 15.3403 85.0661 13.1428C82.0764 10.9354 78.8286 9.57113 75.291 9.01621C71.4306 8.45033 67.8157 8.72653 64.4055 9.8078C61.0119 10.8838 57.9724 12.7469 55.269 15.4503L55.2565 15.4628L55.2439 15.4751L51.179 19.4454L49.0828 21.4929L46.9866 19.4454L42.9217 15.4751L42.9091 15.4628L42.8966 15.4503C40.1975 12.7512 37.0863 10.8288 33.5358 9.65459C30.0177 8.49114 26.5305 8.2774 23.0222 8.99002C19.4254 9.72061 16.1259 11.1919 13.0995 13.4264C10.0875 15.6502 7.80022 18.3357 6.19257 21.4956L6.17672 21.5267L6.16015 21.5575C4.99238 23.7262 4.22348 25.9544 3.83678 28.2512C3.50542 30.5945 3.52169 32.9146 3.88299 35.2214C4.24112 37.5079 4.9725 39.7402 6.09366 41.9264C7.20701 44.0975 8.65797 46.0826 10.4611 47.8858Z" fill="#EEEAE4" stroke="#EEEAE4" stroke-width="6"/>
</g>
<defs>
<clipPath id="clip0_901_4">
<rect width="96.8" height="96.8" fill="white" transform="matrix(1 0 0 -1 0.599609 96.8)"/>
</clipPath>
</defs>
</svg>