<svg width="32" height="32" viewBox="0 0 32 32" fill="none" xmlns="http://www.w3.org/2000/svg">
<rect width="32" height="32" rx="16" fill="#B59E76"/>
<path d="M22.7222 19.0296L20.3537 18.7591C20.0752 18.7264 19.7929 18.7573 19.528 18.8493C19.2631 18.9414 19.0226 19.0923 18.8244 19.2907L17.1086 21.0065C14.4614 19.6601 12.3097 17.5085 10.9634 14.8613L12.6885 13.1362C13.0895 12.7352 13.2853 12.1757 13.2201 11.6069L12.9496 9.25697C12.8968 8.80208 12.6785 8.38251 12.3363 8.07815C11.9941 7.77379 11.5519 7.6059 11.094 7.60645H9.48073C8.42701 7.60645 7.55046 8.483 7.61573 9.53672C8.10996 17.5003 14.4789 23.8599 22.4332 24.3541C23.4869 24.4194 24.3634 23.5429 24.3634 22.4891V20.8759C24.3728 19.9341 23.6641 19.1415 22.7222 19.0296Z" fill="#EEEAE4"/>
</svg>
