<svg width="32" height="32" viewBox="0 0 32 32" fill="none" xmlns="http://www.w3.org/2000/svg">
<rect width="32" height="32" rx="16" fill="#B59E76"/>
<path d="M16.001 15.5C16.853 15.5 17.6858 15.2507 18.3942 14.7837C19.1026 14.3168 19.6547 13.653 19.9808 12.8764C20.3068 12.0998 20.3921 11.2453 20.2259 10.4209C20.0597 9.59645 19.6494 8.83917 19.047 8.2448C18.4445 7.65042 17.677 7.24565 16.8414 7.08166C16.0058 6.91768 15.1396 7.00184 14.3525 7.32351C13.5654 7.64519 12.8926 8.18992 12.4193 8.88883C11.9459 9.58774 11.6933 10.4094 11.6933 11.25C11.6933 12.3772 12.1471 13.4582 12.955 14.2552C13.7628 15.0522 14.8585 15.5 16.001 15.5ZM16.001 16.7143C13.331 16.7143 8.00098 18.3414 8.00098 21.5714V24H24.001V21.5714C24.001 18.3414 18.671 16.7143 16.001 16.7143Z" fill="#EEEAE4"/>
</svg>
