<svg width="26" height="36" viewBox="0 0 26 36" fill="none" xmlns="http://www.w3.org/2000/svg">
<path d="M13 0C5.81286 0 0 5.634 0 12.6C0 22.05 13 36 13 36C13 36 26 22.05 26 12.6C26 5.634 20.1871 0 13 0ZM13 17.1C11.7686 17.1 10.5877 16.6259 9.717 15.782C8.8463 14.9381 8.35714 13.7935 8.35714 12.6C8.35714 11.4065 8.8463 10.2619 9.717 9.41802C10.5877 8.57411 11.7686 8.1 13 8.1C14.2314 8.1 15.4123 8.57411 16.283 9.41802C17.1537 10.2619 17.6429 11.4065 17.6429 12.6C17.6429 13.7935 17.1537 14.9381 16.283 15.782C15.4123 16.6259 14.2314 17.1 13 17.1Z" fill="#035667"/>
</svg>
