<svg width="16" height="16" viewBox="0 0 16 16" fill="none" xmlns="http://www.w3.org/2000/svg">
<path d="M13.5503 11.8984C13.1206 11.7617 12.6812 11.7617 12.232 11.8984C11.939 11.9961 11.6753 12.1621 11.441 12.3965L11.4117 12.4258C11.3726 12.4648 11.3433 12.4941 11.3238 12.5137L4.11673 8.91016C4.11673 8.83203 4.1265 8.7832 4.14603 8.76367C4.14603 8.68555 4.14603 8.57812 4.14603 8.44141V8.11914C4.14603 8.06055 4.14603 8.01172 4.14603 7.97266L11.3238 4.33984C11.3433 4.37891 11.3824 4.42773 11.441 4.48633C11.7339 4.7793 12.0708 4.96973 12.4517 5.05762C12.8326 5.14551 13.2085 5.12109 13.5796 4.98438C14.0874 4.82812 14.4732 4.51562 14.7369 4.04688C15.0005 3.57812 15.0738 3.08496 14.9566 2.56738C14.8394 2.0498 14.566 1.63477 14.1363 1.32227C13.7066 1.00977 13.2281 0.882812 12.7007 0.941406C12.1734 1 11.7339 1.22949 11.3824 1.62988C11.0308 2.03027 10.855 2.49414 10.855 3.02148V3.28516C10.855 3.36328 10.8648 3.42187 10.8843 3.46094L3.67728 7.06445C3.67728 7.04492 3.63822 6.99609 3.56009 6.91797C3.34525 6.70312 3.07181 6.54687 2.73978 6.44922C2.31009 6.29297 1.87552 6.28809 1.43607 6.43457C0.996617 6.58105 0.645054 6.83496 0.381383 7.19629C0.117711 7.55762 -0.00924247 7.95801 0.000523159 8.39746C0.0102888 8.83691 0.132359 9.23242 0.366734 9.58398C0.601109 9.93555 0.913609 10.1943 1.30423 10.3604C1.69486 10.5264 2.09525 10.5654 2.50541 10.4775C2.91556 10.3896 3.26712 10.1992 3.56009 9.90625L3.67728 9.78906L10.8843 13.3926C10.8843 13.4512 10.8745 13.5049 10.855 13.5537C10.8355 13.6025 10.8257 13.7051 10.8257 13.8613C10.8257 14.3301 10.9576 14.7451 11.2212 15.1064C11.4849 15.4678 11.8365 15.7217 12.2759 15.8682C12.7154 16.0146 13.1499 16.0146 13.5796 15.8682C14.0093 15.7217 14.356 15.4678 14.6197 15.1064C14.8833 14.7451 15.0152 14.3398 15.0152 13.8906C15.0152 13.4414 14.8833 13.0361 14.6197 12.6748C14.356 12.3135 14.0093 12.0645 13.5796 11.9277L13.5503 11.8984Z" fill="#035667"/>
</svg>
