<svg width="29" height="23" viewBox="0 0 29 23" fill="none" xmlns="http://www.w3.org/2000/svg">
<path d="M24.279 14.3197C24.279 14.1239 24.2137 13.9607 24.0832 13.8302L14.8816 6.29274C14.6206 6.06434 14.3595 6.06434 14.0985 6.29274L4.89692 13.8302C4.7664 13.9607 4.70114 14.1239 4.70114 14.3197V21.3187C4.70114 21.645 4.81535 21.9224 5.04376 22.1508C5.27216 22.3792 5.54952 22.4934 5.87581 22.4934H11.5534C11.9449 22.4934 12.1407 22.2976 12.1407 21.9061V16.4243C12.1407 16.0327 12.3365 15.8369 12.7281 15.8369H16.2521C16.6436 15.8369 16.8394 16.0327 16.8394 16.4243V21.9061C16.8394 22.2976 17.0352 22.4934 17.4267 22.4934H23.1043C23.4306 22.4934 23.708 22.3792 23.9364 22.1508C24.1648 21.9224 24.279 21.645 24.279 21.3187V14.3197ZM28.3903 11.334C28.684 11.5624 28.7003 11.8398 28.4393 12.1661L27.2157 13.6834C26.9546 13.977 26.6773 13.9934 26.3836 13.7323L14.8816 4.28602C14.6206 4.05761 14.3595 4.05761 14.0985 4.28602L2.59653 13.7323C2.30286 13.9934 2.02551 13.977 1.76447 13.6834L0.540854 12.1661C0.279816 11.8398 0.296131 11.5624 0.589799 11.334L12.9728 1.10462C13.4296 0.74569 13.9354 0.566227 14.4901 0.566227C15.0448 0.566227 15.5342 0.74569 15.9584 1.10462L20.3634 4.72652V1.15356C20.3634 0.990413 20.4124 0.843579 20.5102 0.71306C20.6408 0.615171 20.7876 0.566227 20.9507 0.566227H23.6916C23.8548 0.566227 23.9853 0.615171 24.0832 0.71306C24.2137 0.843579 24.279 0.990413 24.279 1.15356V7.95686L28.3903 11.334Z" fill="#EEEAE4"/>
</svg>
