<svg xmlns="http://www.w3.org/2000/svg" width="690" height="420" viewBox="0 0 690 420"><rect width="100%" height="100%" fill="#DDDDDD"/><path fill="#999999" d="m178.845 176.735-19.73 24.15-2.3 2.86q1.93-.97 4.16-1.5 2.23-.53 4.81-.53 3.77 0 7.33 1.24 3.57 1.25 6.28 3.75 2.72 2.51 4.37 6.24 1.66 3.72 1.66 8.69 0 4.65-1.7 8.72-1.71 4.07-4.79 7.1-3.08 3.04-7.43 4.79-4.34 1.75-9.59 1.75-5.33 0-9.57-1.71-4.23-1.7-7.22-4.76-2.99-3.06-4.58-7.36-1.58-4.3-1.58-9.54 0-4.69 1.91-9.64 1.91-4.94 5.91-10.28l15.87-21.3q.83-1.1 2.41-1.88 1.59-.79 3.66-.79h10.12Zm-17.16 57.96q2.72 0 4.99-.92 2.28-.92 3.91-2.57 1.64-1.66 2.56-3.89.92-2.23.92-4.85 0-2.85-.88-5.13-.87-2.28-2.48-3.87-1.61-1.58-3.87-2.41-2.25-.83-4.96-.83-2.72 0-4.93.92-2.2.92-3.77 2.56-1.56 1.63-2.44 3.86-.87 2.23-.87 4.81 0 2.76.76 5.03.76 2.28 2.25 3.89 1.5 1.61 3.71 2.51 2.2.89 5.1.89Zm41.95-37.99q0 5.56 2.88 8.49 2.87 2.92 8.16 2.92 2.76 0 4.93-.88 2.16-.87 3.63-2.39 1.47-1.52 2.23-3.59t.76-4.46q0-2.71-.83-4.85-.83-2.14-2.34-3.61-1.52-1.48-3.62-2.26-2.09-.78-4.57-.78-2.58 0-4.65.85-2.07.85-3.54 2.37-1.47 1.52-2.25 3.61-.79 2.09-.79 4.58Zm-5.56 46.55 20.65-25.81q.78-.96 1.47-1.88.69-.92 1.34-1.84-2.3 1.47-5.06 2.23t-5.8.76q-3.45 0-6.76-1.2-3.31-1.19-5.89-3.61-2.57-2.41-4.16-5.98-1.59-3.56-1.59-8.35 0-4.46 1.66-8.37 1.65-3.91 4.64-6.85 2.99-2.95 7.18-4.65 4.19-1.7 9.25-1.7 5.1 0 9.17 1.61t6.95 4.51q2.87 2.89 4.41 6.94 1.55 4.05 1.55 8.88 0 3.08-.53 5.84t-1.5 5.31q-.96 2.56-2.34 5-1.38 2.43-3.09 4.83l-15.22 21.71q-.78 1.1-2.35 1.86-1.56.76-3.54.76h-10.44Zm94.8-33.26q0 8.7-1.86 15.11-1.86 6.42-5.15 10.61-3.29 4.18-7.78 6.23-4.48 2.05-9.68 2.05-5.2 0-9.64-2.05-4.43-2.05-7.7-6.23-3.27-4.19-5.11-10.61-1.84-6.41-1.84-15.11 0-8.74 1.84-15.13 1.84-6.4 5.11-10.58 3.27-4.19 7.7-6.23 4.44-2.05 9.64-2.05t9.68 2.05q4.49 2.04 7.78 6.23 3.29 4.18 5.15 10.58 1.86 6.39 1.86 15.13Zm-11.73 0q0-7.22-1.05-11.96-1.06-4.74-2.83-7.54-1.77-2.81-4.07-3.94-2.3-1.12-4.79-1.12-2.44 0-4.71 1.12-2.28 1.13-4.03 3.94-1.75 2.8-2.78 7.54-1.04 4.74-1.04 11.96 0 7.22 1.04 11.96 1.03 4.74 2.78 7.55 1.75 2.8 4.03 3.93 2.27 1.13 4.71 1.13 2.49 0 4.79-1.13t4.07-3.93q1.77-2.81 2.83-7.55 1.05-4.74 1.05-11.96Zm84.78 18.03-6.02 5.94-15.6-15.6-15.73 15.69-6.03-5.93 15.74-15.78-15-15 5.98-5.98 15 15 14.9-14.91 6.07 5.98-14.95 14.95 15.64 15.64Zm39.84-9.84h20.24v-21.76q0-3.08.41-6.81l-20.65 28.57Zm30.13 0h8.37v6.58q0 .92-.6 1.58-.6.67-1.7.67h-6.07v16.24h-9.89v-16.24h-28.06q-1.15 0-2.03-.71-.87-.71-1.1-1.77l-1.2-5.75 31.51-42.09h10.77v41.49Zm38.78 14.49h17.06q1.84 0 2.92 1.04 1.08 1.03 1.08 2.73v6.81h-45.63v-3.77q0-1.15.48-2.42.49-1.26 1.55-2.27l20.19-20.24q2.53-2.58 4.53-4.93 2-2.34 3.34-4.64 1.33-2.3 2.04-4.67.72-2.37.72-4.99 0-2.39-.69-4.21-.69-1.82-1.96-3.06-1.26-1.24-3.04-1.86-1.77-.62-3.97-.62-2.03 0-3.75.57-1.73.58-3.06 1.61-1.34 1.04-2.26 2.42-.92 1.38-1.38 3.03-.78 2.12-2.02 2.81t-3.59.32l-5.98-1.06q.69-4.78 2.67-8.39 1.98-3.61 4.94-6.03 2.97-2.41 6.81-3.63 3.84-1.22 8.26-1.22 4.6 0 8.42 1.36 3.82 1.35 6.53 3.84 2.71 2.48 4.23 5.98 1.52 3.49 1.52 7.77 0 3.68-1.08 6.81-1.08 3.13-2.9 5.98-1.82 2.85-4.25 5.52-2.44 2.67-5.11 5.43l-15 15.31q2.17-.64 4.3-.98 2.14-.35 4.08-.35Zm76.36-22.68q0 8.7-1.87 15.11-1.86 6.42-5.15 10.61-3.29 4.18-7.77 6.23-4.49 2.05-9.69 2.05-5.19 0-9.63-2.05t-7.71-6.23q-3.26-4.19-5.1-10.61-1.84-6.41-1.84-15.11 0-8.74 1.84-15.13 1.84-6.4 5.1-10.58 3.27-4.19 7.71-6.23 4.44-2.05 9.63-2.05 5.2 0 9.69 2.05 4.48 2.04 7.77 6.23 3.29 4.18 5.15 10.58 1.87 6.39 1.87 15.13Zm-11.73 0q0-7.22-1.06-11.96-1.06-4.74-2.83-7.54-1.77-2.81-4.07-3.94-2.3-1.12-4.79-1.12-2.43 0-4.71 1.12-2.28 1.13-4.03 3.94-1.74 2.8-2.78 7.54-1.03 4.74-1.03 11.96 0 7.22 1.03 11.96 1.04 4.74 2.78 7.55 1.75 2.8 4.03 3.93 2.28 1.13 4.71 1.13 2.49 0 4.79-1.13t4.07-3.93q1.77-2.81 2.83-7.55t1.06-11.96Z"/></svg>